<?xml version="1.0" encoding="UTF-8" standalone="no"?> <!-- Created with Vectornator for iOS (http://vectornator.io/) --><!DOCTYPE svg PUBLIC "-//W3C//DTD SVG 1.1//EN" "http://www.w3.org/Graphics/SVG/1.1/DTD/svg11.dtd">
<svg style="fill-rule:evenodd;clip-rule:evenodd;stroke-linecap:round;stroke-linejoin:round;" xmlns:vectornator="http://vectornator.io" xmlns:xlink="http://www.w3.org/1999/xlink" xmlns="http://www.w3.org/2000/svg" xml:space="preserve" version="1.1" viewBox="0 0 400 400">
<defs/>
<g id="Layer 1" vectornator:layerName="Layer 1">
<path d="M215.177+109.535L329.965+224.322C337.32+231.677+337.32+243.601+329.965+250.956L215.177+365.744C207.823+373.098+195.898+373.098+188.544+365.744L73.756+250.956C66.4013+243.601+66.4013+231.677+73.756+224.322L188.544+109.535C195.898+102.18+207.823+102.18+215.177+109.535Z" opacity="1" fill="#d3d4d9"/>
<path d="M198.508+99.5704C237.56+60.518+300.877+60.518+339.929+99.5704C378.982+138.623+378.982+201.939+339.929+240.992C300.877+280.044+237.56+280.044+198.508+240.992C159.456+201.939+159.456+138.623+198.508+99.5704Z" opacity="1" fill="#d3d4d9"/>
<path d="M73.756+224.322L188.544+109.535C195.898+102.18+207.823+102.18+215.177+109.535L329.965+224.322C337.32+231.677+337.32+243.601+329.965+250.956L215.177+365.744C207.823+373.098+195.898+373.098+188.544+365.744L73.756+250.956C66.4013+243.601+66.4013+231.677+73.756+224.322Z" opacity="1" fill="#d3d4d9"/>
<path d="M63.7918+240.992C24.7393+201.939+24.7394+138.623+63.7918+99.5704C102.844+60.518+166.161+60.518+205.213+99.5704C244.266+138.623+244.266+201.939+205.213+240.992C166.161+280.044+102.844+280.044+63.7918+240.992Z" opacity="1" fill="#d3d4d9"/>
</g>
</svg>
